<svg width="16" height="16" viewBox="0 0 16 16" fill="none" xmlns="http://www.w3.org/2000/svg">
<path fill-rule="evenodd" clip-rule="evenodd" d="M7.99825 1H8.00175C11.8614 1 15 4.14038 15 8C15 11.8596 11.8614 15 8.00175 15C6.57812 15 5.25775 14.5765 4.15088 13.8433L1.46025 14.7034L2.33263 12.1029C1.4935 10.9505 1 9.53125 1 8C1 4.1395 4.13863 1 7.99825 1ZM10.701 11.8728C11.2356 11.7573 11.9059 11.3618 12.0747 10.8849C12.2436 10.4072 12.2436 10.0003 12.1946 9.91366C12.155 9.84493 12.0615 9.79988 11.9218 9.73263C11.8854 9.71513 11.846 9.69611 11.8035 9.67478C11.5979 9.57241 10.5977 9.07804 10.4087 9.01241C10.2232 8.94241 10.0465 8.96691 9.90649 9.16466C9.87986 9.20194 9.8533 9.23929 9.82689 9.27644C9.65798 9.51399 9.49506 9.74312 9.35961 9.88916C9.23624 10.0204 9.03499 10.037 8.86611 9.96704C8.8477 9.95936 8.8266 9.95084 8.80296 9.94129C8.53558 9.8333 7.94251 9.59377 7.22461 8.95466C6.61911 8.41566 6.20786 7.74454 6.08886 7.54329C5.97203 7.3414 6.0728 7.22302 6.16595 7.11361C6.16767 7.11158 6.16939 7.10956 6.17111 7.10754C6.23116 7.03323 6.28944 6.97136 6.34801 6.90919C6.39013 6.86446 6.43241 6.81957 6.47561 6.76978C6.48203 6.76239 6.48827 6.75522 6.49434 6.74823C6.58607 6.64276 6.64069 6.57996 6.70224 6.44866C6.77224 6.31304 6.72236 6.17304 6.67249 6.06979C6.63817 5.99748 6.42618 5.48312 6.2442 5.0416C6.16634 4.85267 6.09397 4.67708 6.04336 4.55516C5.90774 4.23054 5.80449 4.21829 5.59886 4.20954C5.59256 4.20922 5.5862 4.2089 5.57977 4.20857C5.51477 4.20528 5.44319 4.20166 5.36436 4.20166C5.09661 4.20166 4.81749 4.28041 4.64861 4.45279C4.64271 4.45881 4.63656 4.46507 4.63018 4.47156C4.41413 4.69128 3.93286 5.18074 3.93286 6.15641C3.93286 7.13397 4.62648 8.08004 4.75482 8.25508C4.75835 8.25991 4.76146 8.26415 4.76411 8.26779C4.77183 8.27793 4.78639 8.29901 4.80757 8.32968C5.06962 8.70917 6.34597 10.5575 8.24924 11.346C9.85749 12.0128 10.3352 11.9507 10.701 11.8728Z" fill="#008648"/>
</svg>
