<svg width="200" height="24" viewBox="0 0 200 24" fill="none" xmlns="http://www.w3.org/2000/svg">
<path fill-rule="evenodd" clip-rule="evenodd" d="M118.507 7.44747C117.792 8.11899 117.152 9.17981 116.808 10.8804C116.117 14.2878 117.038 16.2598 118.336 17.5342C119.751 18.924 121.801 19.6562 123.538 20.036C124.387 20.2215 124.934 21.1088 124.761 22.0177C124.588 22.9267 123.76 23.5132 122.911 23.3277C120.99 22.9076 118.263 22.0202 116.217 20.0107C114.054 17.8857 112.829 14.6786 113.744 10.1674C114.208 7.87824 115.143 6.13931 116.439 4.92164C117.727 3.71144 119.264 3.11707 120.779 2.91065C123.746 2.50649 126.856 3.55142 128.737 4.76545C129.479 5.24408 129.718 6.2763 129.271 7.07098C128.824 7.86567 127.861 8.12188 127.119 7.64325C125.716 6.73762 123.308 5.95261 121.174 6.24327C120.139 6.38426 119.229 6.76849 118.507 7.44747Z" fill="white"/>
<path fill-rule="evenodd" clip-rule="evenodd" d="M81.8857 7.36642C81.1709 8.03793 80.5314 9.09876 80.1866 10.7993C79.4959 14.2068 80.4172 16.1787 81.7148 17.4531C83.13 18.8429 85.1804 19.5752 86.9173 19.955C87.7657 20.1405 88.3131 21.0277 88.1399 21.9367C87.9668 22.8456 87.1387 23.4321 86.2904 23.2466C84.3692 22.8265 81.6424 21.9391 79.5962 19.9296C77.4324 17.8046 76.2081 14.5975 77.1226 10.0863C77.5866 7.79718 78.5223 6.05825 79.8183 4.84058C81.1064 3.63038 82.6424 3.03602 84.1578 2.82959C87.1247 2.42543 90.2344 3.47037 92.1157 4.68439C92.8574 5.16302 93.0966 6.19524 92.6499 6.98993C92.2031 7.78461 91.2397 8.04083 90.498 7.5622C89.0946 6.65657 86.687 5.87155 84.5533 6.16222C83.5183 6.3032 82.6083 6.68744 81.8857 7.36642Z" fill="white"/>
<path fill-rule="evenodd" clip-rule="evenodd" d="M60.5623 19.8618C59.9694 19.1857 60.0004 18.1227 60.6315 17.4875C61.7872 16.3242 62.6038 14.6132 62.4905 12.0823C62.4142 10.3798 61.9414 9.29241 61.3371 8.55904C60.7167 7.80617 59.8414 7.28632 58.7553 6.95117C56.6134 6.29021 54.0733 6.45737 52.156 6.58355C52.0671 6.5894 51.9796 6.59516 51.8935 6.60074C51.0292 6.65682 50.2862 5.95161 50.2339 5.02562C50.1815 4.09963 50.8397 3.3035 51.704 3.24743C51.8156 3.24019 51.9331 3.23224 52.056 3.22394C53.8951 3.09965 56.9371 2.89408 59.6231 3.72295C61.0903 4.17572 62.558 4.96477 63.6876 6.33557C64.8332 7.72587 65.5174 9.57695 65.6224 11.9214C65.7793 15.4276 64.6079 18.0945 62.7783 19.936C62.1473 20.5712 61.1551 20.538 60.5623 19.8618Z" fill="white"/>
<path fill-rule="evenodd" clip-rule="evenodd" d="M34.1562 4.92387C34.1562 3.99618 34.8582 3.24414 35.724 3.24414H40.0913C40.9572 3.24414 41.6591 3.99618 41.6591 4.92387C41.6591 5.85156 40.9572 6.6036 40.0913 6.6036H35.724C34.8582 6.6036 34.1562 5.85156 34.1562 4.92387ZM34.1562 12.8426C34.1562 11.9149 34.8582 11.1629 35.724 11.1629H43.4508C44.3166 11.1629 45.0185 11.9149 45.0185 12.8426C45.0185 13.7703 44.3166 14.5223 43.4508 14.5223H35.724C34.8582 14.5223 34.1562 13.7703 34.1562 12.8426ZM34.1562 20.5213C34.1562 19.5937 34.8582 18.8416 35.724 18.8416H44.7946C45.6604 18.8416 46.3623 19.5937 46.3623 20.5213C46.3623 21.449 45.6604 22.2011 44.7946 22.2011H35.724C34.8582 22.2011 34.1562 21.449 34.1562 20.5213Z" fill="white"/>
<path fill-rule="evenodd" clip-rule="evenodd" d="M35.6107 3.72363C36.4766 3.72363 37.1785 4.47567 37.1785 5.40336V20.281C37.1785 21.2086 36.4766 21.9607 35.6107 21.9607C34.7449 21.9607 34.043 21.2086 34.043 20.281V5.40336C34.043 4.47567 34.7449 3.72363 35.6107 3.72363Z" fill="white"/>
<path fill-rule="evenodd" clip-rule="evenodd" d="M94.5117 5.04301C94.5117 4.11532 95.2136 3.36328 96.0795 3.36328H101.455C102.32 3.36328 103.022 4.11532 103.022 5.04301V20.6405C103.022 21.5682 102.32 22.3202 101.455 22.3202C100.589 22.3202 99.8869 21.5682 99.8869 20.6405V6.72274H96.0795C95.2136 6.72274 94.5117 5.9707 94.5117 5.04301Z" fill="white"/>
<path fill-rule="evenodd" clip-rule="evenodd" d="M71.2201 8.04297C72.0859 8.04297 72.7879 8.79501 72.7879 9.7227V20.6409C72.7879 21.5686 72.0859 22.3207 71.2201 22.3207C70.3543 22.3207 69.6523 21.5686 69.6523 20.6409V9.7227C69.6523 8.79501 70.3543 8.04297 71.2201 8.04297Z" fill="white"/>
<path fill-rule="evenodd" clip-rule="evenodd" d="M51.7357 3.36328C52.6016 3.36328 53.3035 4.11532 53.3035 5.04301V20.6405C53.3035 21.5682 52.6016 22.3202 51.7357 22.3202C50.8699 22.3202 50.168 21.5682 50.168 20.6405V5.04301C50.168 4.11532 50.8699 3.36328 51.7357 3.36328Z" fill="white"/>
<path fill-rule="evenodd" clip-rule="evenodd" d="M108.06 8.00977C108.926 8.00977 109.628 8.76181 109.628 9.68949V20.6077C109.628 21.5354 108.926 22.2875 108.06 22.2875C107.194 22.2875 106.492 21.5354 106.492 20.6077V9.68949C106.492 8.76181 107.194 8.00977 108.06 8.00977Z" fill="white"/>
<path fill-rule="evenodd" clip-rule="evenodd" d="M136.167 6.30853V12.1225C138.299 12.115 140.066 12.0288 141.319 11.6133C141.952 11.4034 142.321 11.1489 142.532 10.9007C142.715 10.6849 142.87 10.3697 142.886 9.79259C142.922 8.53224 142.625 7.83615 142.288 7.41599C141.931 6.96992 141.362 6.62886 140.532 6.41733C139.225 6.08418 137.641 6.15524 136.167 6.30853ZM136.167 15.4821C138.267 15.4763 140.493 15.4041 142.246 14.8225C143.196 14.5076 144.135 14.0047 144.851 13.1618C145.595 12.2865 145.984 11.177 146.02 9.89434C146.074 7.9872 145.619 6.41463 144.667 5.22727C143.736 4.06582 142.48 3.46049 141.258 3.14906C138.946 2.55995 136.229 2.90545 134.549 3.11902C134.503 3.12478 134.459 3.13045 134.415 3.136C133.626 3.236 133.031 3.95274 133.031 4.8041V21.6008H136.167V15.4821Z" fill="white"/>
<path fill-rule="evenodd" clip-rule="evenodd" d="M140.222 12.6164C140.895 12.0327 141.882 12.144 142.427 12.8651L144.331 15.3847C144.875 16.1057 144.772 17.1634 144.099 17.7471C143.426 18.3308 142.438 18.2195 141.894 17.4984L139.99 14.9789C139.445 14.2578 139.549 13.2001 140.222 12.6164Z" fill="white"/>
<path fill-rule="evenodd" clip-rule="evenodd" d="M20.1589 6.42865V12.2426C22.291 12.2351 24.0583 12.1489 25.311 11.7335C25.944 11.5235 26.3136 11.269 26.5244 11.0208C26.7076 10.8051 26.8623 10.4898 26.8786 9.9127C26.9143 8.65236 26.6171 7.95627 26.2803 7.53611C25.9227 7.09004 25.3547 6.74898 24.5246 6.53745C23.2173 6.20429 21.6335 6.27535 20.1589 6.42865ZM20.1589 15.6022C22.2592 15.5964 24.4847 15.5242 26.2382 14.9427C27.1878 14.6277 28.1274 14.1249 28.8434 13.2819C29.5868 12.4066 29.9764 11.2971 30.0127 10.0145C30.0666 8.10731 29.6107 6.53475 28.659 5.34738C27.7281 4.18594 26.4722 3.5806 25.2502 3.26917C22.9386 2.68007 20.2208 3.02556 18.5408 3.23914C18.4954 3.2449 18.4508 3.25057 18.407 3.25612C17.6179 3.35612 17.0234 4.07285 17.0234 4.92422V21.7209H20.1589V15.6022Z" fill="white"/>
<path fill-rule="evenodd" clip-rule="evenodd" d="M23.7611 12.6164C24.434 12.0327 25.4212 12.144 25.966 12.8651L27.8697 15.3847C28.4145 16.1057 28.3106 17.1634 27.6376 17.7471C26.9646 18.3308 25.9775 18.2195 25.4327 17.4984L23.529 14.9789C22.9842 14.2578 23.0881 13.2001 23.7611 12.6164Z" fill="white"/>
<path fill-rule="evenodd" clip-rule="evenodd" d="M3.13551 6.5476V21.7214H0V4.92471C0 3.99705 0.70187 3.24502 1.56769 3.24498C2.08256 3.24496 2.63102 3.21274 3.25597 3.17603C3.64275 3.1533 4.05884 3.12886 4.51439 3.10926C5.62955 3.06129 6.88768 3.05104 8.07937 3.24934C9.26424 3.44651 10.5331 3.87294 11.5463 4.8255C12.606 5.82168 13.2164 7.232 13.3227 9.01623C13.3248 9.05185 13.3259 9.08753 13.3259 9.12322C13.3259 9.15456 13.3304 9.21182 13.3366 9.29154C13.3935 10.0232 13.5975 12.6476 11.8589 14.5105C11.2466 15.1664 10.254 15.1664 9.64174 14.5105C9.02949 13.8545 9.02949 12.791 9.64174 12.135C10.2614 11.4711 10.2351 10.685 10.2045 9.76593C10.1982 9.57724 10.1917 9.38295 10.1906 9.18295C10.1223 8.17876 9.81326 7.66555 9.47835 7.35071C9.09182 6.98733 8.48497 6.71657 7.59816 6.569C6.71818 6.42257 5.70867 6.42005 4.64017 6.46602C4.29637 6.48081 3.93022 6.50196 3.56096 6.5233C3.41924 6.53149 3.27706 6.53971 3.13551 6.5476Z" fill="white"/>
<path fill-rule="evenodd" clip-rule="evenodd" d="M157.798 2.1641C158.412 2.1686 158.968 2.55751 159.219 3.15883L164.37 15.5168C164.586 16.0365 164.543 16.6383 164.254 17.1158C163.965 17.5933 163.469 17.8815 162.938 17.8815H153.447L151.483 22.4267C151.119 23.2686 150.187 23.635 149.402 23.2451C148.616 22.8553 148.274 21.8569 148.638 21.0151L156.364 3.13794C156.623 2.54035 157.183 2.1596 157.798 2.1641ZM154.899 14.5221H160.521L157.761 7.90092L154.899 14.5221Z" fill="white"/>
<path fill-rule="evenodd" clip-rule="evenodd" d="M174.931 5.82163C173.926 5.66358 173.125 5.93721 172.545 6.70252C171.579 7.97906 171.66 8.51301 171.689 8.62734C171.741 8.83515 171.991 9.23615 172.936 9.82558C173.597 10.2385 174.363 10.6078 175.241 11.0317C175.579 11.195 175.934 11.3663 176.307 11.5514C177.563 12.1758 178.968 12.9373 180.1 13.9756C181.429 15.1935 181.841 17.1423 181.299 18.8297C180.588 21.0458 179.218 22.246 177.603 22.6796C176.132 23.0745 174.613 22.7899 173.54 22.5161C172.698 22.3012 172.178 21.3955 172.378 20.493C172.579 19.5905 173.424 19.0331 174.266 19.248C175.246 19.498 176.14 19.6089 176.841 19.4209C177.397 19.2717 177.957 18.9106 178.334 17.737C178.485 17.2683 178.35 16.7927 178.062 16.5282C177.281 15.8128 176.219 15.2113 174.987 14.5989C174.701 14.4569 174.4 14.3117 174.093 14.1632C173.163 13.7148 172.173 13.2371 171.358 12.7286C170.301 12.0693 169.059 11.0834 168.661 9.50178C168.24 7.82669 168.912 6.16869 170.11 4.58636C171.529 2.71216 173.53 2.20593 175.386 2.49775C177.192 2.78152 178.94 3.8119 180.251 5.14628C180.878 5.78519 180.904 6.84839 180.308 7.52099C179.711 8.19359 178.719 8.22091 178.091 7.58199C177.163 6.63696 175.988 5.98773 174.931 5.82163Z" fill="white"/>
<path d="M8.06129 14.4024C8.06129 15.3301 7.35938 16.0821 6.49353 16.0821C5.62769 16.0821 4.92578 15.3301 4.92578 14.4024C4.92578 13.4747 5.62769 12.7227 6.49353 12.7227C7.35938 12.7227 8.06129 13.4747 8.06129 14.4024Z" fill="#FFB178"/>
<path d="M30.4597 20.6407C30.4597 21.5684 29.7578 22.3204 28.892 22.3204C28.0261 22.3204 27.3242 21.5684 27.3242 20.6407C27.3242 19.713 28.0261 18.9609 28.892 18.9609C29.7578 18.9609 30.4597 19.713 30.4597 20.6407Z" fill="#FFB178"/>
<path d="M46.1355 5.04301C46.1355 5.9707 45.4336 6.72274 44.5678 6.72274C43.7019 6.72274 43 5.9707 43 5.04301C43 4.11532 43.7019 3.36328 44.5678 3.36328C45.4336 3.36328 46.1355 4.11532 46.1355 5.04301Z" fill="#FFB178"/>
<path d="M58.6785 20.6407C58.6785 21.5684 57.9766 22.3204 57.1107 22.3204C56.2449 22.3204 55.543 21.5684 55.543 20.6407C55.543 19.713 56.2449 18.9609 57.1107 18.9609C57.9766 18.9609 58.6785 19.713 58.6785 20.6407Z" fill="#FFB178"/>
<path d="M72.7879 4.32426C72.7879 5.25195 72.0859 6.00399 71.2201 6.00399C70.3543 6.00399 69.6523 5.25195 69.6523 4.32426C69.6523 3.39657 70.3543 2.64453 71.2201 2.64453C72.0859 2.64453 72.7879 3.39657 72.7879 4.32426Z" fill="#FFB178"/>
<path d="M92.9441 19.2012C92.9441 20.1289 92.2422 20.8809 91.3763 20.8809C90.5105 20.8809 89.8086 20.1289 89.8086 19.2012C89.8086 18.2735 90.5105 17.5215 91.3763 17.5215C92.2422 17.5215 92.9441 18.2735 92.9441 19.2012Z" fill="#FFB178"/>
<path d="M109.628 4.32426C109.628 5.25195 108.926 6.00399 108.06 6.00399C107.194 6.00399 106.492 5.25195 106.492 4.32426C106.492 3.39657 107.194 2.64453 108.06 2.64453C108.926 2.64453 109.628 3.39657 109.628 4.32426Z" fill="#FFB178"/>
<path d="M129.136 19.6309C129.136 20.5586 128.434 21.3106 127.568 21.3106C126.702 21.3106 126 20.5586 126 19.6309C126 18.7032 126.702 17.9512 127.568 17.9512C128.434 17.9512 129.136 18.7032 129.136 19.6309Z" fill="#FFB178"/>
<path d="M146.698 20.4014C146.698 21.3291 145.996 22.0811 145.13 22.0811C144.264 22.0811 143.562 21.3291 143.562 20.4014C143.562 19.4737 144.264 18.7217 145.13 18.7217C145.996 18.7217 146.698 19.4737 146.698 20.4014Z" fill="#FFB178"/>
<path d="M165.956 20.4014C165.956 21.3291 165.254 22.0811 164.388 22.0811C163.522 22.0811 162.82 21.3291 162.82 20.4014C162.82 19.4737 163.522 18.7217 164.388 18.7217C165.254 18.7217 165.956 19.4737 165.956 20.4014Z" fill="#FFB178"/>
<path d="M171.335 18.4815C171.335 19.4092 170.633 20.1612 169.767 20.1612C168.901 20.1612 168.199 19.4092 168.199 18.4815C168.199 17.5538 168.901 16.8018 169.767 16.8018C170.633 16.8018 171.335 17.5538 171.335 18.4815Z" fill="#FFB178"/>
<path d="M199.999 4.80375C199.999 5.73144 199.297 6.48348 198.431 6.48348C197.565 6.48348 196.863 5.73144 196.863 4.80375C196.863 3.87606 197.565 3.12402 198.431 3.12402C199.297 3.12402 199.999 3.87606 199.999 4.80375Z" fill="#FFB178"/>
<path fill-rule="evenodd" clip-rule="evenodd" d="M187.458 3.12402C188.324 3.12402 189.026 3.87606 189.026 4.80375V11.0427H196.753V9.96292C196.753 9.03523 197.455 8.28319 198.321 8.28319C199.187 8.28319 199.888 9.03523 199.888 9.96292V20.6412C199.888 21.5689 199.187 22.3209 198.321 22.3209C197.455 22.3209 196.753 21.5689 196.753 20.6412V14.4022H189.026V20.6412C189.026 21.5689 188.324 22.3209 187.458 22.3209C186.593 22.3209 185.891 21.5689 185.891 20.6412V4.80375C185.891 3.87606 186.593 3.12402 187.458 3.12402Z" fill="white"/>
</svg>
